<?xml version="1.0" encoding="UTF-8"?>
<svg id="Layer_1" data-name="Layer 1" xmlns="http://www.w3.org/2000/svg" version="1.1" xmlns:xlink="http://www.w3.org/1999/xlink" viewBox="0 0 1000 1000">
  <defs>
    <style>
      .cls-1 {
        fill: url(#linear-gradient);
      }

      .cls-1, .cls-2, .cls-3, .cls-4, .cls-5, .cls-6, .cls-7, .cls-8, .cls-9, .cls-10, .cls-11, .cls-12, .cls-13, .cls-14, .cls-15, .cls-16, .cls-17, .cls-18, .cls-19, .cls-20 {
        stroke-width: 0px;
      }

      .cls-2 {
        fill: #dd1010;
      }

      .cls-3, .cls-9, .cls-18 {
        fill: #000;
      }

      .cls-21 {
        fill: #435f84;
      }

      .cls-21, .cls-22, .cls-23, .cls-24, .cls-25, .cls-26, .cls-27 {
        stroke: #0d2232;
      }

      .cls-21, .cls-22, .cls-24, .cls-25, .cls-26, .cls-27 {
        stroke-width: 18.149px;
      }

      .cls-21, .cls-23, .cls-24, .cls-25 {
        stroke-linecap: round;
        stroke-linejoin: round;
      }

      .cls-4 {
        fill: #000072;
      }

      .cls-5, .cls-22, .cls-25 {
        fill: #253b5a;
      }

      .cls-6 {
        fill: #cfb300;
      }

      .cls-22, .cls-26, .cls-27 {
        stroke-miterlimit: 10;
      }

      .cls-7 {
        opacity: .73;
      }

      .cls-7, .cls-9, .cls-13, .cls-14, .cls-18, .cls-19 {
        isolation: isolate;
      }

      .cls-7, .cls-13, .cls-14, .cls-17, .cls-19 {
        fill: #fff;
      }

      .cls-28, .cls-9 {
        opacity: .16;
      }

      .cls-8 {
        fill: #371a45;
      }

      .cls-29 {
        opacity: .3;
      }

      .cls-23 {
        stroke-width: 19.08px;
      }

      .cls-23, .cls-24, .cls-26 {
        fill: none;
      }

      .cls-10, .cls-27 {
        fill: #fbc6a6;
      }

      .cls-11 {
        fill: url(#linear-gradient-2);
      }

      .cls-12 {
        fill: #162336;
      }

      .cls-13 {
        opacity: .21;
      }

      .cls-14 {
        opacity: .5;
      }

      .cls-15 {
        fill: #0d2232;
      }

      .cls-16 {
        fill: #afcadc;
      }

      .cls-30 {
        opacity: .55;
      }

      .cls-31 {
        opacity: .2;
      }

      .cls-18 {
        opacity: .4;
      }

      .cls-19 {
        opacity: .74;
      }

      .cls-20 {
        fill: #f9dc1b;
      }
    </style>
    <linearGradient id="linear-gradient" x1="230.534" y1="546.83" x2="725.225" y2="546.83" gradientTransform="translate(0 1000) scale(1 -1)" gradientUnits="userSpaceOnUse">
      <stop offset="0" stop-color="#edaa1a"/>
      <stop offset="1" stop-color="#fbca18"/>
    </linearGradient>
    <linearGradient id="linear-gradient-2" x1="474.704" y1="781.615" x2="477.319" y2="551.547" gradientTransform="translate(0 1000) scale(1 -1)" gradientUnits="userSpaceOnUse">
      <stop offset="0" stop-color="#edaa1a"/>
      <stop offset="1" stop-color="#fbca18"/>
    </linearGradient>
  </defs>
  <g>
    <path class="cls-6" d="M725.209,469.434s-10.188,9.393-55.749,13.878c-45.579,4.483-366.53,18.956-366.53,18.956l-19.916-9.355s-45.467-1.822-52.122-16.057c-6.656-14.235,154.455-73.491,154.455-73.491l204.537-9.324,47.003,17.894,88.324,57.499h-.001Z"/>
    <path class="cls-24" d="M725.209,469.434s-10.188,9.393-55.749,13.878c-45.579,4.483-366.53,18.956-366.53,18.956l-19.916-9.355s-45.467-1.822-52.122-16.057c-6.656-14.235,154.455-73.491,154.455-73.491l204.537-9.324,47.003,17.894,88.324,57.499h-.001Z"/>
    <path class="cls-27" d="M285.821,560.262s-52.035,7.034-44.62,67.233c7.433,60.197,82.319,46.483,82.319,46.483l-7.756-86.463-29.943-27.253h0Z"/>
    <path class="cls-27" d="M685.722,554.258s39.759,5.932,43.406,49.882c3.649,43.951-44.702,83.554-83.215,68.761-38.511-14.792-11.249-80.935-11.249-80.935l51.057-37.708h0Z"/>
    <path class="cls-18" d="M682.591,580.382s20.763,10.604,12.33,34.462c-11.795,33.423-36.988,24.578-36.988,24.578l6.977-41.399,17.681-17.641h0Z"/>
    <path class="cls-18" d="M278.649,586.448s-20.436,11.222-11.291,34.816c12.794,33.054,37.71,23.458,37.71,23.458l-8.219-41.172-18.2-17.102h0Z"/>
    <path class="cls-10" d="M662.286,561.12l.742,49.504s-.319,8.589-3.262,21.914c-6.598,29.874-26.363,83.574-85.207,117.893-8.371,4.874-16.807,8.957-25.271,12.296-24.585,9.713-49.299,13.244-72.922,12.286-50.893-2.068-96.592-24.991-124.436-51.672-45.208-43.327-48.927-110.351-48.927-110.351l-1.406-93.724,51.745-64.35,270.706-.8,33.949,38.608,4.29,68.397h0Z"/>
    <path class="cls-14" d="M385.911,729.809c35.467,24.788,68.555,37.226,93.898,43.442-50.893-2.068-96.592-24.991-124.435-51.671-45.21-43.327-48.927-110.351-48.927-110.351l-.249-16.577,14.437-11.65s-11.592,93.074,65.276,146.807h0Z"/>
    <path class="cls-14" d="M654.584,632.617c-6.598,29.874-26.361,83.572-85.205,117.892-8.373,4.876-16.809,8.956-25.274,12.297,29.848-23.988,78.355-68.117,92.78-111.477,4.91-14.667,11.087-19.718,17.698-18.712h0Z"/>
    <path class="cls-1" d="M725.209,469.434s-19.117-6.777-44.655-6.394c-25.538.385-405.497,6.089-405.497,6.089,0,0-34.52-.846-44.166,7.726l-.355-23.621c-.138-9.151,7.176-16.688,16.327-16.824l461.182-6.925c9.152-.138,16.688,7.176,16.826,16.327l.355,23.621h-.016Z"/>
    <path class="cls-11" d="M698.307,429.632c.002.189.003.277.003.277l-221.085,3.32-.003-.277-221.103,3.321s0-.052-.002-.138c-.096-1.813-1.075-19.829-.421-28.095.681-8.715,7.738-9.078,7.738-9.078,0,0,10.598-108.552,133.363-146.249,0,0-1.415-21.723,18.653-24.182,20.066-2.478,58.599-5.767,58.599-5.767l.004.276s38.598,2.132,58.73,4.007c20.132,1.874,19.37,23.612,19.37,23.612,123.84,33.995,137.693,142.178,137.693,142.178,0,0,7.065.17,8.007,8.845.898,8.051.523,25.552.455,27.953v-.002Z"/>
    <path class="cls-7" d="M698.307,429.632l-18.787.283s-11.178-110.677-126.887-164.362l-.257-12.535s-90.506-26.862-155.697,4.548l1.098,17.928s-101.537,29.763-124.572,159.968l-17.07.653c-.096-1.813-1.075-19.829-.422-28.093.681-8.716,7.739-9.08,7.739-9.08,0,0,10.598-108.551,133.363-146.248,0,0-1.415-21.723,18.65-24.183,20.066-2.478,58.601-5.767,58.601-5.767l.004.276s38.598,2.132,58.73,4.006c20.13,1.874,19.37,23.612,19.37,23.612,123.841,33.995,137.693,142.179,137.693,142.179,0,0,7.065.168,8.008,8.842.881,8.07.504,25.57.438,27.972h0Z"/>
    <path class="cls-24" d="M697.87,401.66c-.941-8.671-8.008-8.842-8.008-8.842,0,0-13.853-108.184-137.693-142.179,0,0,.762-21.738-19.37-23.612-20.132-1.874-58.747-4.006-58.747-4.006l-.004-.276s-38.535,3.29-58.601,5.767c-20.066,2.478-18.65,24.183-18.65,24.183-122.765,37.697-133.363,146.247-133.363,146.247,0,0-7.058.382-7.739,9.08s.424,28.249.424,28.249l221.084-3.32.006.276,221.085-3.32s.535-19.559-.424-28.249h0Z"/>
    <path class="cls-20" d="M552.168,250.638s2.172,18.171-4.609,55.491l4.609-55.491h0Z"/>
    <path class="cls-24" d="M552.168,250.638s2.172,18.171-4.609,55.491"/>
    <path class="cls-24" d="M689.861,392.817l-55.998.841c-5.922.089-10.649,4.959-10.561,10.884l.398,26.488"/>
    <path class="cls-20" d="M396.814,252.695s-1.627,18.228,6.271,55.328l-6.271-55.328Z"/>
    <path class="cls-24" d="M396.814,252.695s-1.627,18.228,6.271,55.328"/>
    <path class="cls-24" d="M263.45,398.943l55.997-.841c5.922-.089,10.795,4.639,10.884,10.563l.397,26.485"/>
    <path class="cls-19" d="M701.743,445.799c-11.219-4.08-23.477-3.81-35.389-3.511-87.096,2.24-174.194,4.464-261.293,6.703-38.706.996-77.395,1.991-116.101,2.987-17.178.449-36.432,1.809-47.81,14.655-2.241,2.538-4.423,5.646-7.765,6.197-5.099.854-8.97-5.03-9.151-10.191-.353-9.684,6.979-18.343,15.724-22.551,8.745-4.19,18.718-4.823,28.4-5.296,143.415-7.042,287.526,4.732,430.544-8.002,8.263-.728,18.035-.928,23.089,5.662,2.785,3.638,3.305,8.483,3.736,13.053.416,4.605,4.439,21.747-4.934,15.308-3.037-2.08-5.179-6.693-8.323-9.134-3.215-2.49-6.891-4.61-10.727-5.882h0Z"/>
    <path class="cls-24" d="M725.209,469.434s-19.117-6.777-44.655-6.394c-25.538.385-405.497,6.089-405.497,6.089,0,0-34.52-.846-44.166,7.726l-.355-23.621c-.138-9.151,7.176-16.688,16.327-16.824l461.182-6.925c9.152-.138,16.688,7.176,16.826,16.327l.355,23.621h-.016Z"/>
    <path class="cls-22" d="M316.278,527.387s-.182,50.071.966,64.458c1.15,14.387-8.428,27.57-23.515,17.745-15.087-9.825-13.082-69.612-13.082-69.612,0,0,15.516.475,35.632-12.591Z"/>
    <path class="cls-15" d="M399.394,606.258c15.297-.228,27.509-12.815,27.281-28.112-.231-15.295-12.817-27.51-28.112-27.279-15.297.228-27.511,12.815-27.281,28.112.229,15.295,12.815,27.509,28.112,27.279Z"/>
    <path class="cls-15" d="M563.134,603.8c15.297-.228,27.511-12.815,27.281-28.112-.229-15.295-12.815-27.509-28.112-27.281-15.297.231-27.51,12.817-27.281,28.114.231,15.295,12.817,27.51,28.112,27.279h0Z"/>
    <path class="cls-15" d="M598.005,526.801c-2.227.033-4.465-.692-6.303-2.237-.856-.696-19.703-15.887-46.92-11.213-5.236.908-10.21-2.61-11.101-7.846-.907-5.238,2.61-10.212,7.846-11.104,36.33-6.244,61.496,14.535,62.545,15.434,4.058,3.428,4.582,9.499,1.153,13.558-1.865,2.204-4.524,3.367-7.22,3.407h0Z"/>
    <path class="cls-15" d="M363.039,530.33c2.227-.033,4.442-.827,6.232-2.425.836-.721,19.218-16.472,46.564-12.617,5.262.749,10.128-2.916,10.861-8.178.749-5.262-2.916-10.128-8.178-10.861-36.5-5.15-61.029,16.374-62.052,17.304-3.955,3.55-4.295,9.634-.746,13.587,1.932,2.146,4.624,3.23,7.319,3.189h0Z"/>
    <path class="cls-12" d="M567.782,657.959c-7.035,13.387-17.456,28-32.491,38.865-13.275,9.595-30.152,16.257-51.477,16.576-23.258.348-41.382-7.013-55.392-17.595-13.434-10.145-23.078-23.28-29.841-35.441-5.911-10.67-2.66-22.981,5.648-29.929,3.99-3.341,9.142-5.439,14.994-5.526l126.946-1.908c5.853-.087,11.064,1.855,15.154,5.076,8.547,6.728,12.169,19.041,6.459,29.884h0Z"/>
    <path class="cls-17" d="M532.629,652.909c-27.245.411-109.091,1.638-109.091,1.638,0,0-21.796,1.157-19.292-24.112,3.992-3.342,9.142-5.439,14.995-5.528l126.948-1.906c5.853-.087,11.064,1.855,15.152,5.075.298.254-1.481,24.426-28.711,24.834h0Z"/>
    <path class="cls-2" d="M535.31,696.823c-13.276,9.595-30.154,16.256-51.477,16.576-23.259.351-41.384-7.013-55.394-17.596,7.897-18.097,38.042-24.561,68.543-23.342,23.484.925,33.88,14.636,38.328,24.362h0Z"/>
    <path class="cls-26" d="M419.223,624.907l126.946-1.906c18.113-.272,30.041,18.927,21.613,34.96-13.265,25.225-38.484,54.756-83.966,55.439-45.569.683-71.423-28.185-85.234-53.038-8.751-15.773,2.598-35.185,20.642-35.455h0Z"/>
    <g class="cls-28">
      <path class="cls-3" d="M313.441,468.554l347.375-5.216,8.625,19.974-366.732,5.507,10.732-20.265h0Z"/>
      <path class="cls-3" d="M280.645,539.978s61.732,14.237,122.298-52.647l-54.653-7.453-67.645,60.099h0Z"/>
      <path class="cls-3" d="M431.127,533.073s92.002,13.85,149.758-58.483l-50.912,2.544-98.846,55.939h0Z"/>
    </g>
    <path class="cls-9" d="M656.962,574.689s-27.347,168.593-205.321,192.888c0,0,187.106,23.721,207.484-156.98l-2.163-35.908Z"/>
    <path class="cls-5" d="M370.389,467.698s-39.243,80.466-87.348,71.396c-4.363-.831-8.293-1.775-11.792-2.792-35.059-10.321-29.131-29.631-29.131-29.631,0,0,29.312,8.817,48.854-34.636.463-1.027.911-2.07,1.358-3.147l78.058-1.173v-.016h0Z"/>
    <path class="cls-13" d="M270.926,510.487c-10.42,9.655-14.677,9.46-14.677,9.46,0,0-1.174,7.91,8.38,16.454-27.598-10.432-22.998-29.723-22.998-29.723,0,0,25.799,5.728,41.024-37.661.033.586-1.425,31.92-11.729,41.471h0Z"/>
    <path class="cls-5" d="M737.718,506.742s-22.531,36.142-62.902,28.612c-23.121-4.315-52.105-22.965-86.07-70.916l99.392-1.286s.385,4.986,2.59,11.585c4.447,13.18,16.21,32.831,46.991,32.005h0Z"/>
    <path class="cls-13" d="M737.718,506.74s-22.53,36.142-62.903,28.614c4.574-1.383,9.001-3.33,13.233-5.519,8.535-4.427,16.502-9.884,24.983-14.416-9.503-.307-18.069-7.189-21.932-15.888-2.715-6.143-4.7-16.423-1.793-22.84.385-.851.893-1.499,1.456-1.94,4.411,13.164,16.174,32.814,46.956,31.988h0Z"/>
    <path class="cls-24" d="M688.153,463.136s3.403,44.836,49.567,43.607c0,0-55.703,89.4-148.958-42.323l99.391-1.284h0Z"/>
    <path class="cls-25" d="M542.573,465.114s-20.322,57.903-111.448,67.959c0,0,15.324-28.485,14.754-66.507l96.694-1.452Z"/>
    <path class="cls-24" d="M370.387,467.698s-38.21,80.452-85.076,71.363c-46.866-9.089-39.905-32.458-39.905-32.458,0,0,29.927,9.24,48.93-37.78l76.051-1.142v.016h0Z"/>
    <path class="cls-26" d="M663.027,610.625s-3.361,90.169-88.468,139.805c-85.107,49.636-177.421,16.239-222.63-27.089-45.208-43.327-48.927-110.351-48.927-110.351"/>
    <path class="cls-25" d="M685.454,536.385s-.12,46.134-1.883,55.122c-1.766,8.99-9.472,20.245-24.429,19.106-14.956-1.139-14.71-20.417-15.172-34.003-.481-13.568-.827-55.065-.827-55.065,0,0,20.58,15.769,42.311,14.839h0Z"/>
    <path class="cls-13" d="M398.313,340.155c-16.315,8.613-22.622,7.949-22.622,7.949,0,0-2.427,7.861,11.025,17.536-40.093-13.556-31.593-32.537-31.593-32.537,0,0,37.827,8.606,64.196-33.549-.003.596-4.876,32.083-21.007,40.602h0Z"/>
  </g>
  <g>
    <path class="cls-16" d="M842.979,408.497l33.344,6.867c4.766.981,7.846,5.636,6.864,10.403l-12.657,61.459c-.981,4.765-5.654,7.841-10.42,6.861l-33.344-6.867c-4.749-.977-7.825-5.65-6.844-10.415l12.657-61.459c.981-4.767,5.654-7.843,10.399-6.849h0Z"/>
    <path class="cls-4" d="M819.341,476.684l12.657-61.459c1.045-5.074,6.031-8.373,11.123-7.325l33.344,6.867c5.091,1.048,8.389,6.034,7.34,11.126l-12.657,61.459c-1.049,5.092-6.052,8.386-11.143,7.336l-33.344-6.866c-5.091-1.05-8.386-6.052-7.321-11.14h0ZM842.873,409.102c-4.423-.912-8.764,1.948-9.675,6.371l-12.657,61.459c-.915,4.439,1.944,8.781,6.367,9.692l33.344,6.867c4.44.915,8.782-1.945,9.696-6.385l12.657-61.459c.911-4.424-1.948-8.766-6.388-9.68l-33.344-6.866h0Z"/>
    <g class="cls-31">
      <path class="cls-3" d="M829.581,473.557l33.344,6.866c4.766.981,9.438-2.094,10.42-6.861l-2.81,13.646c-.981,4.767-5.654,7.843-10.42,6.861l-33.344-6.866c-4.749-.979-7.825-5.65-6.844-10.417l2.81-13.646c-.985,4.783,2.095,9.438,6.844,10.417Z"/>
    </g>
    <g class="cls-30">
      <path class="cls-17" d="M842.979,408.499l33.344,6.867c4.766.981,7.846,5.636,6.864,10.401l-1.984,9.636c.978-4.749-2.099-9.422-6.864-10.403l-33.344-6.867c-4.749-.977-9.417,2.082-10.399,6.847l1.984-9.634c.981-4.765,5.654-7.841,10.399-6.847h0Z"/>
    </g>
    <path class="cls-16" d="M798.992,418.685l31.561,6.5-8.996,43.681-37.202-7.661,14.636-42.519h0Z"/>
    <path class="cls-4" d="M798.584,417.975l32.709,6.738-9.243,44.881-38.504-7.929,15.038-43.689ZM829.83,425.661l-30.447-6.27-14.235,41.351,35.933,7.401,8.749-42.482h0Z"/>
    <path class="cls-16" d="M692.811,367.296l101.986,21.004c7.269,1.496,11.558,9.045,9.149,16.055l-4.936,14.334-14.636,42.519-6.789,19.689c-2.011,5.858-8.044,9.299-14.113,8.049l-62.213-12.812c-5.589-1.151-9.591-6.014-9.81-11.724-1.287-34.273-37.939-55.277-69.255-37.888-5.589,3.103-12.294-1.478-11.524-7.824,4.175-34.238,40.74-59.929,82.141-51.402h.001Z"/>
    <path class="cls-4" d="M690.855,464.431c-.592-15.866-9.129-29.956-22.82-37.671-13.98-7.865-30.997-7.759-45.526.311-2.825,1.562-6.083,1.427-8.75-.374-2.654-1.779-4.071-4.876-3.684-8.068,1.952-15.984,10.75-30.327,24.782-40.412,16.152-11.612,37.319-15.813,58.081-11.539l101.985,21.004c3.635.747,6.773,3.037,8.611,6.258,1.835,3.237,2.201,7.101.997,10.606l-26.361,76.542c-2.119,6.122-8.479,9.763-14.823,8.456l-62.214-12.812c-5.828-1.202-10.077-6.257-10.278-12.303ZM692.652,367.89c-20.417-4.205-41.231-.075-57.106,11.328-13.756,9.873-22.37,23.933-24.282,39.551-.339,2.771.845,5.355,3.154,6.903,2.277,1.523,5.061,1.633,7.46.304,14.911-8.277,32.373-8.379,46.722-.296,14.076,7.919,22.835,22.393,23.447,38.692.213,5.478,4.042,10.055,9.321,11.141l62.214,12.812c5.743,1.184,11.495-2.099,13.404-7.639l26.361-76.545c1.082-3.171.766-6.669-.903-9.586s-4.513-4.986-7.804-5.664l-101.986-21.002h0Z"/>
    <g class="cls-31">
      <path class="cls-3" d="M628.548,384.209c-4.009,6.625-6.657,14.016-7.608,21.843-.771,6.346,5.935,10.926,11.524,7.824,31.316-17.39,67.968,3.615,69.255,37.888.219,5.71,4.222,10.573,9.809,11.724l62.213,12.812c1.869.384,3.723.319,5.476-.124l-1.633,4.722c-2.011,5.858-8.044,9.297-14.113,8.049l-62.213-12.812c-5.591-1.151-9.591-6.015-9.81-11.724-1.287-34.273-37.939-55.277-69.255-37.888-5.589,3.101-12.294-1.478-11.524-7.824,1.611-13.286,8.119-25.276,17.879-34.489h0Z"/>
    </g>
    <g class="cls-30">
      <path class="cls-17" d="M692.792,367.293l101.986,21.002c7.269,1.498,11.558,9.047,9.149,16.055l-4.936,14.336-14.636,42.519-6.789,19.689c-1.689,4.906-6.195,8.124-11.162,8.298.316-.579.584-1.185.807-1.835l6.789-19.689,14.636-42.519,4.936-14.334c2.409-7.01-1.881-14.559-9.149-16.055l-101.987-21.004c-17.846-3.674-34.787-.981-48.627,5.997,15.231-11.57,36.371-17.117,58.984-12.459h0Z"/>
    </g>
    <g class="cls-30">
      <path class="cls-17" d="M827.825,438.437l48.602,10.01,2.771-13.457-48.602-10.01-2.771,13.457Z"/>
    </g>
    <path class="cls-21" d="M672.265,622.473l57.241,11.788,30.091-146.114-57.242-11.788-30.09,146.114Z"/>
    <g class="cls-31">
      <path class="cls-8" d="M754.467,513.933c.136.206.079.482-.127.617-1.375.949-2.776,1.503-4.162,2.075-1.387.572-2.787,1.123-4.136,1.774-2.716,1.3-5.174,3.081-7.365,5.132-4.387,4.119-7.645,9.612-12.66,13.833-2.473,2.118-5.482,3.714-8.618,4.623-3.153.906-6.388,1.258-9.588,1.259-3.199.004-6.343-.27-9.468-.626-1.569-.182-3.121-.376-4.672-.481-1.551-.194-3.037-.356-4.521-1.396l-.012-.021c-.062-.048-.121-.114-.157-.193-.112-.238,0-.519.234-.612,1.628-.702,3.233-.604,4.78-.392,1.533.28,3.083.474,4.62.648,3.073.347,6.148.605,9.186.606,3.038,0,6.054-.327,8.904-1.152,2.837-.844,5.464-2.234,7.737-4.16,4.594-3.825,7.845-9.285,12.55-13.731,2.354-2.233,5.052-4.053,7.89-5.595,1.429-.779,2.909-1.455,4.453-1.926,1.544-.468,3.159-.761,4.832-.47.103.022.216.081.301.187h.001Z"/>
      <path class="cls-8" d="M691.404,528.233c-.006-.234.178-.428.412-.434l.055-.007c1.833-.05,3.406.47,5.023.766.803.183,1.62.298,2.421.481.807.077,1.606.277,2.431.341,3.27.351,6.608.11,9.768-.74,1.598-.386,3.105-1.024,4.568-1.705,1.412-.781,2.831-1.596,4.004-2.697,2.48-2.061,4.13-4.866,5.424-7.943,1.312-3.07,2.336-6.398,4.026-9.57,1.673-3.176,4.315-6.029,7.483-7.787,3.135-1.857,6.747-2.828,10.366-2.959,1.806-.094,3.628.175,5.428.455,1.783.368,3.557,1.127,4.747,2.641l-.031-.025c.089.091.17.213.238.317.041.061.078.14.078.231.019.253-.167.465-.418.468h-.089c-.106-.006-.216.009-.306.006l-.031-.023c-1.815-.124-3.219-.683-4.779-1.093-1.542-.407-3.162-.615-4.769-.536-3.203.109-6.421.983-9.191,2.629-.719.371-1.34.867-2.005,1.32-.593.539-1.245,1.012-1.763,1.621-1.112,1.146-2.022,2.443-2.803,3.89-1.557,2.878-2.568,6.137-3.928,9.36-1.34,3.209-3.254,6.513-6.075,8.846-1.346,1.24-2.93,2.165-4.504,3.039-1.642.768-3.308,1.48-5.054,1.889-3.469.964-7.074,1.115-10.623.905-3.534-.192-7.184-1.033-9.972-3.376-.094-.072-.157-.193-.133-.313h-.001Z"/>
      <path class="cls-8" d="M694.849,511.59c-.019-.253.184-.463.439-.482l.016.004c1.264-.062,2.27.182,3.293.409,1.008.226,2.023.417,3.058.595,2.086.287,4.219.083,6.281-.387,4.131-.971,8.009-3.14,11.04-6.142,3.031-3.004,5.233-6.84,6.578-10.942.674-2.058,1.13-4.181,1.413-6.338.13-1.064.266-2.161.221-3.243-.025-1.095-.035-2.171.534-3.285l-.003-.072c.118-.137.184-.285.321-.433l.024-.032c.017.004.021-.013.041-.028.218-.187.553-.171.758.049.164.158.235.336.358.521l-.003-.072c.646,1.116.653,2.296.54,3.454-.151,1.165-.192,2.318-.356,3.464-.294,2.297-.781,4.575-1.505,6.786-1.447,4.419-3.842,8.589-7.191,11.922-3.345,3.313-7.595,5.726-12.211,6.795-2.31.543-4.718.69-7.094.522-.594-.068-1.194-.102-1.781-.206-.582-.118-1.176-.277-1.741-.482-1.127-.429-2.2-1.025-2.939-2.125-.055-.082-.075-.159-.092-.252h0Z"/>
      <path class="cls-8" d="M716.827,479.411c.16-.253.479-.329.732-.171.841.513,1.232,1.22,1.492,1.951.277.738.42,1.517.509,2.303.197,1.559.384,3.17.265,4.791-.224,3.259-1.503,6.515-4.005,8.86-1.239,1.156-2.844,2.006-4.524,2.356-1.681.352-3.413.262-5.011-.137-1.618-.389-3.111-1.035-4.497-1.857-.351-.197-.68-.425-.988-.667-.329-.228-.663-.422-.996-.635-.639-.452-1.264-.975-1.3-2.107-.011-.289.187-.553.484-.616l.038-.009c1.154-.228,1.735.159,2.303.616.525.485,1.1.996,1.694,1.314,1.194.711,2.472,1.277,3.801,1.587,1.327.326,2.672.39,3.923.13,1.254-.278,2.415-.88,3.367-1.773,1.922-1.784,3.049-4.482,3.216-7.202.07-1.379.002-2.788-.319-4.175-.178-.697-.377-1.381-.479-2.099-.123-.707-.167-1.447.199-2.354.004-.018.028-.048.093-.107l.002.002Z"/>
      <path class="cls-8" d="M750.16,535.098c.078.231-.044.473-.275.551-1.809.628-3.387,1.089-4.981,1.798-1.586.673-3.132,1.5-4.617,2.463-2.977,1.96-5.505,4.601-8.118,7.226-2.614,2.625-5.317,5.339-8.576,7.455-3.284,2.148-7.032,3.341-10.635,4.261-3.61.956-7.188,1.755-10.415,3.198-3.218,1.484-6.165,3.556-8.692,6.11-2.554,2.512-4.78,5.414-6.862,8.415-1.042,1.502-2.057,3.044-2.976,4.641-.981,1.55-1.999,3.109-3.743,4.198-.082.055-.195.085-.298.062-.243-.031-.429-.267-.395-.51.255-2.02,1.208-3.611,2.226-5.17,1.062-1.514,2.082-3.075,3.151-4.624,2.136-3.08,4.44-6.109,7.169-8.782,2.704-2.712,5.889-4.987,9.42-6.602,3.545-1.592,7.25-2.403,10.801-3.333,3.568-.926,6.976-2.029,9.929-3.96,2.987-1.922,5.57-4.481,8.166-7.111,2.583-2.648,5.279-5.328,8.409-7.596,1.572-1.125,3.267-2.15,5.162-2.761,1.867-.653,3.99-.894,5.892-.235.116.043.236.156.259.304h0Z"/>
      <path class="cls-8" d="M702.973,551.113l-.004.018c-.204.726-.528.998-.889,1.193-.365.211-.761.308-1.153.389-.79.194-1.519.527-2.277.817-1.482.606-2.959,1.267-4.412,1.987-1.436.724-2.866,1.501-4.249,2.325-.692.41-1.372.842-2.05,1.275-.331.217-.678.432-.954.734-.321.254-.666.453-1.51-.044l-.018-.004c-.221-.133-.407-.369-.453-.664-.163-.945.161-1.217.512-1.448.411-.167.744-.401,1.095-.634.7-.444,1.42-.904,2.132-1.33,1.447-.863,2.917-1.669,4.428-2.412,1.495-.747,3.03-1.431,4.588-2.058.765-.324,1.564-.57,2.336-.93.375-.172.771-.358,1.194-.414s.882-.033,1.464.444c.21.186.325.497.219.758h0Z"/>
      <path class="cls-8" d="M746.788,550.951c.16.177.159.443-.017.604-1.505,1.495-2.729,2.922-3.902,4.54-1.152,1.603-2.209,3.351-3.259,5.154-2.077,3.576-4.112,7.642-7.845,10.41-1.841,1.39-4.136,2.206-6.375,2.495-2.26.302-4.456.118-6.587-.123-4.219-.512-8.334-1.36-12.071-.395-1.833.48-3.557,1.392-5.017,2.665-1.477,1.27-2.71,2.837-3.813,4.541-2.185,3.41-3.82,7.272-5.73,11.077-1.917,3.841-4.328,7.472-7.141,10.719-1.406,1.622-2.92,3.168-4.465,4.674-1.584,1.441-3.324,2.781-5.573,3.283-.096.035-.234.006-.33-.049-.205-.133-.272-.415-.139-.62,1.198-1.915,2.749-3.203,4.281-4.569,1.595-1.316,3.024-2.79,4.361-4.337,2.691-3.091,4.971-6.518,6.804-10.215,1.867-3.689,3.516-7.621,5.865-11.301,1.181-1.831,2.561-3.582,4.279-5.069,1.715-1.471,3.787-2.598,6.015-3.176,2.228-.578,4.5-.593,6.666-.434,2.162.177,4.253.519,6.312.766,2.062.228,4.069.373,5.996.126,1.927-.246,3.719-.879,5.243-2.029,1.537-1.132,2.833-2.651,3.979-4.311,1.146-1.657,2.11-3.478,3.103-5.346.976-1.873,2.016-3.803,3.457-5.507,1.403-1.695,3.284-3.274,5.534-3.704.131-.028.282.022.367.128v.002Z"/>
      <path class="cls-8" d="M739.708,585.681c.099.216.007.484-.209.582-1.562.731-3.252.777-4.851.645-1.598-.132-3.169-.492-4.681-.875-3.04-.77-5.989-1.376-8.955-1.469-2.927-.104-5.865.453-8.021,2.154-2.199,1.657-3.437,4.368-4.261,7.235-.827,2.886-1.38,6.007-2.235,9.03-.824,3.045-1.785,6.064-3.031,8.991-1.229,2.927-2.725,5.763-4.59,8.401-.929,1.309-1.956,2.563-2.997,3.796-1.103,1.184-2.364,2.283-4.155,2.558-.072.003-.162.003-.243-.033-.23-.101-.354-.358-.25-.606l.004-.016c.658-1.635,1.699-2.617,2.729-3.71,1.083-1.01,2.04-2.189,2.899-3.406,1.734-2.431,3.164-5.119,4.329-7.918,1.184-2.794,2.107-5.713,2.913-8.674.824-2.959,1.369-5.955,2.242-9.065.445-1.552,1.013-3.096,1.818-4.575.819-1.458,1.911-2.859,3.308-3.912,1.379-1.056,3.014-1.792,4.65-2.188,1.657-.409,3.323-.514,4.956-.461,3.254.08,6.418.856,9.421,1.458l4.478.814c1.495.289,2.911.527,4.46,1.08.116.04.209.113.27.162h0Z"/>
      <path class="cls-8" d="M694.719,604.295c.287.774.155,1.318-.052,1.812-.193.497-.514.929-.836,1.365-.644.868-1.175,1.794-1.783,2.67-1.188,1.776-2.455,3.498-3.782,5.174-1.327,1.674-2.715,3.298-4.164,4.859-.715.783-1.464,1.557-2.209,2.314-.382.386-.763.756-1.084,1.189-.363.372-.79.712-1.772.439-.267-.09-.492-.298-.555-.596-.222-1.011.124-1.387.518-1.735.434-.286.795-.658,1.158-1.03.74-.724,1.447-1.47,2.16-2.237,1.406-1.533,2.763-3.094,4.046-4.723,1.301-1.628,2.522-3.307,3.677-5.016.556-.868,1.175-1.706,1.649-2.626.223-.472.446-.945.795-1.337.319-.417.715-.783,1.529-.918.3-.065.603.106.706.395h0Z"/>
      <path class="cls-8" d="M736.868,599.733c.033.275-.157.503-.415.538-1.213.162-2.224-.045-3.211-.285-.99-.221-1.95-.508-2.924-.727-1.955-.404-3.949-.35-5.802.144-3.744,1-6.788,3.981-8.724,7.479-1.99,3.505-2.954,7.576-3.042,11.651-.046,2.046.124,4.082.494,6.107.183,1.02.407,2.013.779,2.984.276,1.004.6,1.946.118,3.242l-.007.034c-.007.034-.011.05-.035.082-.156.235-.458.316-.715.174-1.177-.707-1.62-1.762-1.886-2.818l-.671-3.248c-.393-2.172-.583-4.372-.536-6.598.091-4.429,1.135-8.896,3.355-12.818,1.082-1.957,2.476-3.779,4.184-5.303,1.704-1.508,3.76-2.729,6.029-3.335,2.255-.625,4.624-.585,6.864-.267,1.115.141,2.229.37,3.267.798,1.041.412,2.02.954,2.759,1.962.041.061.078.14.119.204h0Z"/>
      <path class="cls-8" d="M733.725,613.434l-.038.011c-.798.317-1.313.301-1.821.25-.512-.034-.988-.15-1.496-.201-1.015-.103-2.006.194-2.866.641-1.75.944-3.02,2.864-3.306,4.86-.324,2.004.543,3.954,1.952,5.708.695.877,1.508,1.706,2.354,2.541.43.428.85.817,1.349,1.17.437.394.846.836.683,1.893l-.004.016c-.039.277-.25.521-.549.584-1.031.234-1.503-.167-1.933-.595-.382-.49-.832-.904-1.263-1.332-.86-.856-1.73-1.75-2.541-2.756-.794-1.004-1.525-2.138-2.009-3.434-.504-1.285-.643-2.778-.45-4.15.424-2.755,2.055-5.296,4.556-6.675,1.233-.694,2.683-.966,4.07-1.021.704-.033,1.41.006,2.072.267.651.225,1.276.656,1.567,1.503.101.288-.052.596-.327.717h-.001Z"/>
    </g>
    <g class="cls-30">
      <path class="cls-17" d="M720.985,632.507l25.219-122.456c.399-1.936,2.301-3.19,4.239-2.791l5.005,1.032-25.943,125.969-8.503-1.75-.017-.004Z"/>
    </g>
    <g class="cls-29">
      <path class="cls-8" d="M759.597,488.148l-4.184,20.315-30.138-6.205c-7.475-1.54-14.793,3.279-16.333,10.754l-23.119,112.256-13.559-2.794,30.09-146.114,57.242,11.788h0Z"/>
    </g>
    <g class="cls-31">
      <path class="cls-3" d="M830.554,425.185l-8.996,43.681-16.064-3.307,17.036-42.027,8.023,1.652Z"/>
    </g>
    <g class="cls-31">
      <path class="cls-17" d="M759.275,400.768c9.703,1.998,16.531,8.675,15.245,14.916-1.285,6.239-8.808,2.939-18.511.941-9.703-1.998-17.918-1.94-16.633-8.179,1.285-6.241,10.195-9.678,19.899-7.679h0Z"/>
    </g>
    <g class="cls-31">
      <path class="cls-17" d="M706.391,682.47c6.069,1.249,4.209,10.712,1.812,22.353-2.397,11.641-4.445,21.066-10.498,19.82-6.051-1.247-9.025-11.706-6.629-23.347,2.397-11.639,9.245-20.077,15.314-18.826h0Z"/>
    </g>
    <path class="cls-24" d="M842.979,408.497l33.344,6.867c4.766.981,7.846,5.636,6.864,10.403l-12.657,61.459c-.981,4.765-5.654,7.841-10.42,6.861l-33.344-6.867c-4.749-.977-7.825-5.65-6.844-10.415l12.657-61.459c.981-4.767,5.654-7.843,10.399-6.849h0Z"/>
    <path class="cls-24" d="M798.992,418.685l31.561,6.5-8.996,43.681-37.202-7.661,14.636-42.519h0Z"/>
    <path class="cls-24" d="M692.811,367.296l101.986,21.004c7.269,1.496,11.558,9.045,9.149,16.055l-4.936,14.334-14.636,42.519-6.789,19.689c-2.011,5.858-8.044,9.299-14.113,8.049l-62.213-12.812c-5.589-1.151-9.591-6.014-9.81-11.724-1.287-34.273-37.939-55.277-69.255-37.888-5.589,3.103-12.294-1.478-11.524-7.824,4.175-34.238,40.74-59.929,82.141-51.402h.001Z"/>
    <path class="cls-24" d="M672.265,622.473l57.241,11.788,30.091-146.114-57.242-11.788-30.09,146.114Z"/>
    <path class="cls-10" d="M646.221,659.642c-14.413-8.204-6.119-24.868-6.119-24.868,7.47-21.693,34.286-15.419,34.286-15.419l53.026,10.919c20.949,4.314,34.443,24.786,30.129,45.735l-12.887,62.574c-2.898,14.074-13.131,24.798-25.876,28.981-6.211,2.046-13.014,2.54-19.872,1.126l-49.081-10.107c-24.447-5.035-25.223-21.313-25.223-21.313-5.187-23.926,14.177-37.862,14.177-37.862-24.118-24.768,7.442-39.785,7.44-39.766h0Z"/>
    <path class="cls-14" d="M674.394,619.337l53.024,10.921c20.949,4.314,34.443,24.786,30.129,45.733l-12.887,62.574c-2.899,14.076-13.131,24.798-25.877,28.983,4.677-23.145,15.506-76.51,19.735-95.654,5.469-24.731-22.663-28.273-22.663-28.273,0,0-7.183-1.481-35.589-7.329-28.406-5.85-40.161-1.534-40.161-1.534,7.474-21.711,34.288-15.421,34.288-15.421h0Z"/>
    <path class="cls-24" d="M646.208,659.621c-14.429-8.208-6.121-24.868-6.121-24.868,7.472-21.692,34.288-15.419,34.288-15.419l53.043,10.923c20.949,4.314,34.44,24.801,30.125,45.751l-12.883,62.556c-4.314,20.95-24.803,34.44-45.752,30.125l-49.081-10.107c-24.447-5.035-25.223-21.315-25.223-21.315-5.187-23.924,14.177-37.859,14.177-37.859-24.118-24.768,7.442-39.785,7.426-39.787h0Z"/>
    <path class="cls-24" d="M646.244,659.539l61.493,12.664"/>
    <path class="cls-24" d="M640.415,700.066l61.493,12.664"/>
  </g>
  <g>
    <path class="cls-10" d="M278.919,614.292l-8.383-34.781c-3.785-15.703-19.572-25.342-35.257-21.562-15.703,3.785-25.342,19.572-21.562,35.257l8.296,34.42,56.906-13.334Z"/>
    <path class="cls-23" d="M280.545,617.806l-8.813-36.565c-3.979-16.509-20.576-26.642-37.065-22.668-16.509,3.979-26.642,20.576-22.668,37.065l8.722,36.186,59.825-14.018h0Z"/>
    <g>
      <g class="cls-31">
        <path class="cls-17" d="M265.579,701.312c2.801,11.551.193,22.107-5.811,23.564-6.005,1.457-8.381-7.892-11.182-19.442-2.802-11.551-4.99-20.943,1.032-22.402,6.022-1.462,13.16,6.732,15.962,18.28Z"/>
      </g>
      <path class="cls-10" d="M317.776,697.603s19.838,13.252,15.488,37.344c0,0-.207,16.295-24.464,22.179l-48.699,11.812c-6.805,1.652-13.621,1.396-19.899-.433-12.884-3.736-23.484-14.097-26.871-28.061l-15.06-62.086c-5.042-20.787,7.73-41.715,28.516-46.758l52.613-12.761s26.582-7.204,34.803,14.215c0,0,8.87,16.365-5.248,25.066-.003-.018,32.061,13.89,8.821,39.483h0Z"/>
      <path class="cls-14" d="M314.199,633.038s-11.898-3.905-40.084,2.933c-28.185,6.835-35.312,8.565-35.312,8.565,0,0-27.991,4.52-21.664,29.046,4.893,18.985,17.576,71.94,23.057,94.908-12.884-3.738-23.484-14.097-26.871-28.063l-15.06-62.086c-5.042-20.785,7.73-41.713,28.516-46.756l52.611-12.763s26.579-7.221,34.805,14.216h.001Z"/>
      <path class="cls-24" d="M317.776,697.603s19.838,13.252,15.488,37.342c0,0-.207,16.297-24.464,22.181l-48.699,11.812c-20.787,5.042-41.732-7.725-46.774-28.512l-15.056-62.069c-5.042-20.787,7.726-41.731,28.512-46.773l52.63-12.766s26.582-7.204,34.805,14.215c0,0,8.884,16.36-5.25,25.066-.016.003,32.048,13.91,8.808,39.504h0Z"/>
      <path class="cls-24" d="M247.915,672.819l61.014-14.801"/>
      <path class="cls-24" d="M255.152,713.118l61.014-14.801"/>
    </g>
  </g>
</svg>