<?xml version="1.0" encoding="UTF-8"?>
<svg id="Logo" xmlns="http://www.w3.org/2000/svg" version="1.1" xmlns:xlink="http://www.w3.org/1999/xlink" viewBox="0 0 528.333 104">
  <defs>
    <style>
      .cls-1, .cls-2 {
        opacity: .16;
      }

      .cls-3, .cls-4, .cls-5, .cls-6, .cls-7, .cls-8, .cls-9 {
        stroke: #0d2232;
      }

      .cls-3, .cls-4, .cls-5, .cls-7, .cls-8, .cls-9 {
        stroke-width: 3.168px;
      }

      .cls-3, .cls-4, .cls-6, .cls-8 {
        stroke-linecap: round;
        stroke-linejoin: round;
      }

      .cls-3, .cls-10, .cls-9 {
        fill: #253b5a;
      }

      .cls-11 {
        opacity: .74;
      }

      .cls-11, .cls-12, .cls-13, .cls-14, .cls-15, .cls-16, .cls-10, .cls-17, .cls-18, .cls-19, .cls-20, .cls-21, .cls-22, .cls-23, .cls-24, .cls-25, .cls-26, .cls-27, .cls-2, .cls-28, .cls-29 {
        stroke-width: 0px;
      }

      .cls-11, .cls-16, .cls-22, .cls-25, .cls-26, .cls-2 {
        isolation: isolate;
      }

      .cls-11, .cls-16, .cls-22, .cls-25, .cls-28 {
        fill: #fff;
      }

      .cls-12 {
        fill: url(#linear-gradient);
      }

      .cls-4, .cls-6, .cls-7 {
        fill: none;
      }

      .cls-13 {
        fill: #dd1010;
      }

      .cls-14, .cls-26, .cls-2 {
        fill: #000;
      }

      .cls-5, .cls-7, .cls-9 {
        stroke-miterlimit: 10;
      }

      .cls-5, .cls-19 {
        fill: #fbc6a6;
      }

      .cls-30 {
        opacity: .2;
      }

      .cls-15 {
        fill: #000072;
      }

      .cls-6 {
        stroke-width: 3.331px;
      }

      .cls-16 {
        opacity: .21;
      }

      .cls-17 {
        fill: #cfb300;
      }

      .cls-18 {
        fill: #371a45;
      }

      .cls-8 {
        fill: #435f84;
      }

      .cls-20 {
        fill: url(#linear-gradient-2);
      }

      .cls-21 {
        fill: #162336;
      }

      .cls-22 {
        opacity: .5;
      }

      .cls-23 {
        fill: url(#linear-gradient-3);
      }

      .cls-24 {
        fill: #0d2232;
      }

      .cls-25 {
        opacity: .73;
      }

      .cls-31 {
        opacity: .3;
      }

      .cls-26 {
        opacity: .4;
      }

      .cls-27 {
        fill: #afcadc;
      }

      .cls-32 {
        opacity: .55;
      }

      .cls-29 {
        fill: #f9dc1b;
      }
    </style>
    <linearGradient id="linear-gradient" x1="411.794" y1="25.3" x2="411.794" y2="87.127" gradientUnits="userSpaceOnUse">
      <stop offset="0" stop-color="#fbca18"/>
      <stop offset="1" stop-color="#edaa1a"/>
    </linearGradient>
    <linearGradient id="linear-gradient-2" x1="10.469" y1="44.34" x2="96.834" y2="44.34" gradientUnits="userSpaceOnUse">
      <stop offset="0" stop-color="#edaa1a"/>
      <stop offset="1" stop-color="#fbca18"/>
    </linearGradient>
    <linearGradient id="linear-gradient-3" x1="53.097" y1="3.35" x2="53.554" y2="43.516" xlink:href="#linear-gradient-2"/>
  </defs>
  <g id="Tool">
    <g>
      <path class="cls-24" d="M152.125,28.2h43.274c1.038,0,1.79.039,2.257.117.467.078,1.012.272,1.634.583.623.312,1.063.883,1.323,1.712.259.831.389,1.92.389,3.269s-.13,2.426-.389,3.23c-.26.805-.701,1.362-1.323,1.673s-1.181.506-1.673.584c-.494.078-1.259.117-2.296.117h-14.866v39.149c0,1.194-.039,2.076-.117,2.646-.078.571-.312,1.232-.701,1.984-.389.753-1.077,1.284-2.062,1.596-.986.312-2.284.467-3.892.467s-2.893-.155-3.853-.467c-.961-.312-1.634-.843-2.023-1.596-.389-.752-.623-1.427-.701-2.023-.078-.596-.117-1.491-.117-2.686v-39.071h-14.943c-.986,0-1.726-.039-2.218-.117-.494-.078-1.051-.272-1.673-.584s-1.064-.882-1.323-1.712c-.26-.829-.389-1.919-.389-3.269s.129-2.425.389-3.23c.259-.804.701-1.362,1.323-1.674.623-.311,1.18-.506,1.673-.583.492-.078,1.257-.117,2.296-.117Z"/>
      <path class="cls-24" d="M216.102,43.377c5.707,0,10.714,2.011,15.021,6.032,4.306,4.021,6.46,9.146,6.46,15.371,0,4.308-1.117,8.134-3.347,11.48-2.232,3.347-4.942,5.812-8.133,7.394-3.191,1.584-6.474,2.374-9.846,2.374-3.477,0-6.824-.843-10.041-2.529-3.218-1.686-5.928-4.176-8.133-7.472-2.206-3.295-3.308-7.017-3.308-11.169,0-6.227,2.179-11.363,6.538-15.41,4.359-4.047,9.288-6.071,14.788-6.071ZM211.042,70.424c1.66,1.271,3.347,1.906,5.059,1.906s3.424-.647,5.137-1.945c1.712-1.297,2.568-3.217,2.568-5.76s-.805-4.437-2.413-5.682c-1.609-1.245-3.399-1.868-5.37-1.868-1.765,0-3.452.649-5.059,1.946-1.609,1.297-2.413,3.19-2.413,5.682,0,2.543.83,4.449,2.491,5.721Z"/>
      <path class="cls-24" d="M262.801,43.377c5.707,0,10.713,2.011,15.021,6.032,4.305,4.021,6.459,9.146,6.459,15.371,0,4.308-1.115,8.134-3.346,11.48-2.232,3.347-4.943,5.812-8.135,7.394-3.189,1.584-6.473,2.374-9.846,2.374-3.477,0-6.822-.843-10.04-2.529-3.218-1.686-5.928-4.176-8.133-7.472-2.206-3.295-3.308-7.017-3.308-11.169,0-6.227,2.179-11.363,6.538-15.41,4.359-4.047,9.289-6.071,14.789-6.071ZM257.742,70.424c1.658,1.271,3.346,1.906,5.059,1.906s3.424-.647,5.137-1.945c1.713-1.297,2.568-3.217,2.568-5.76s-.805-4.437-2.412-5.682c-1.609-1.245-3.4-1.868-5.371-1.868-1.766,0-3.451.649-5.059,1.946-1.609,1.297-2.414,3.19-2.414,5.682,0,2.543.83,4.449,2.492,5.721Z"/>
      <path class="cls-24" d="M289.341,31.858c0-1.193.039-2.088.117-2.686.077-.596.311-1.284.7-2.062.389-.778,1.076-1.323,2.062-1.634.985-.312,2.308-.467,3.969-.467,1.608,0,2.893.169,3.854.506.959.338,1.646.883,2.062,1.634.414.753.661,1.44.739,2.062.077.623.116,1.531.116,2.724v36.036c0,1.868.156,3.049.467,3.541.312.494,1.168.74,2.569.74.726,0,1.271.038,1.634.116.362.078.817.299,1.362.662s.934.999,1.167,1.906c.234.908.351,2.115.351,3.619,0,1.609-.116,2.906-.351,3.892-.233.986-.622,1.674-1.167,2.062-.545.39-1.012.623-1.401.7-.389.078-.947.117-1.673.117-2.751,0-4.956-.104-6.616-.312-1.661-.206-3.204-.609-4.631-1.206-1.428-.596-2.49-1.518-3.19-2.763-.701-1.246-1.233-2.828-1.596-4.748-.363-1.919-.545-4.384-.545-7.394V31.858Z"/>
    </g>
  </g>
  <g id="Mate">
    <path class="cls-12" d="M372.918,27.308c1.607,0,2.905.156,3.892.467.984.312,1.686.856,2.101,1.634.415.778.662,1.479.74,2.102.077.623.116,1.531.116,2.724v43.196c0,1.194-.052,2.09-.155,2.686-.104.598-.351,1.272-.739,2.023-.39.753-1.078,1.284-2.062,1.596-.986.312-2.31.467-3.97.467-1.35,0-2.465-.129-3.347-.389-.883-.259-1.557-.57-2.023-.935-.467-.362-.817-.895-1.051-1.595-.233-.701-.364-1.297-.39-1.79-.026-.493-.039-1.232-.039-2.219v-26.073c-1.297,1.608-3.19,4.164-5.682,7.666-2.49,3.503-4.333,6.007-5.525,7.511-.156.261-.364.559-.623.896-.26.338-.895.805-1.906,1.4-1.013.598-2.115.896-3.309.896-1.142,0-2.192-.272-3.151-.817-.961-.545-1.648-1.076-2.062-1.596l-.623-.855c-1.039-1.297-3.088-4.06-6.148-8.289-3.062-4.229-4.723-6.5-4.981-6.811v26.229c0,1.194-.039,2.09-.117,2.686-.077.598-.324,1.272-.739,2.023-.416.753-1.116,1.284-2.102,1.596-.986.312-2.309.467-3.969.467-1.609,0-2.894-.155-3.853-.467-.961-.312-1.648-.843-2.062-1.596-.416-.751-.662-1.439-.739-2.062-.078-.622-.117-1.557-.117-2.802v-43.196c0-1.193.039-2.088.117-2.685.077-.596.323-1.271.739-2.023.414-.751,1.115-1.284,2.102-1.596.984-.311,2.308-.467,3.969-.467,1.401,0,2.607.169,3.619.506,1.012.338,1.674.688,1.984,1.051l.468.467,17.667,23.194c8.82-11.675,14.71-19.38,17.668-23.116.882-1.401,2.983-2.101,6.305-2.101ZM419.383,43.263c1.607,0,2.905.156,3.892.467.984.311,1.673.856,2.062,1.634.389.778.622,1.467.7,2.062.078.597.117,1.492.117,2.685v27.241c0,1.194-.039,2.089-.117,2.685-.078.598-.312,1.272-.7,2.024-.39.752-1.078,1.284-2.062,1.595-.986.312-2.31.468-3.97.468-2.335,0-3.982-.351-4.942-1.051-.961-.701-1.518-1.725-1.673-3.074-1.921,2.75-5.034,4.125-9.34,4.125-4.67,0-8.925-2.05-12.765-6.149-3.84-4.098-5.76-8.897-5.76-14.398,0-5.344,1.933-10.053,5.799-14.126,3.865-4.073,8.106-6.109,12.726-6.109,1.764,0,3.372.311,4.825.934,1.452.623,2.464,1.207,3.035,1.751.57.545,1.038,1.078,1.401,1.596.155-1.452.713-2.542,1.674-3.269.959-.726,2.658-1.09,5.098-1.09ZM405.451,70.504c1.867,0,3.437-.7,4.708-2.102,1.271-1.4,1.907-2.957,1.907-4.67,0-1.659-.61-3.216-1.829-4.669-1.22-1.452-2.867-2.18-4.942-2.18-2.023,0-3.671.728-4.942,2.18-1.271,1.453-1.906,3.035-1.906,4.747s.674,3.257,2.023,4.631c1.349,1.376,3.009,2.062,4.981,2.062ZM456.197,57.039l-5.06-.311v10.74c0,1.401.221,2.413.662,3.035.44.623,1.231.935,2.374.935,1.296,0,2.269.039,2.918.116.648.078,1.323.312,2.024.701.7.389,1.179.999,1.439,1.828.259.831.389,1.973.389,3.425,0,1.609-.169,2.906-.506,3.892-.338.986-.895,1.674-1.673,2.062-.778.39-1.467.623-2.062.7-.598.078-1.467.117-2.607.117-5.397,0-9.495-1.219-12.297-3.658-2.803-2.438-4.203-6.563-4.203-12.375v-11.519c-.986.155-1.921.233-2.802.233-1.401,0-2.479-.44-3.23-1.323-.753-.882-1.129-2.725-1.129-5.526,0-1.452.129-2.658.39-3.619.259-.959.635-1.646,1.129-2.062.492-.415.973-.687,1.439-.817.467-.129,1.012-.195,1.635-.195l2.568.312v-8.017c0-1.193.039-2.075.116-2.646.078-.57.312-1.206.701-1.907.389-.701,1.076-1.193,2.062-1.479.984-.284,2.308-.428,3.969-.428,1.297,0,2.374.13,3.23.389.855.26,1.518.558,1.984.895.467.338.817.856,1.051,1.557.233.7.362,1.311.39,1.829.025.519.038,1.245.038,2.179v7.627c2.283-.207,3.995-.312,5.138-.312,1.192,0,2.088.039,2.685.117.596.078,1.271.312,2.023.701.752.389,1.284,1.077,1.596,2.062.312.986.467,2.309.467,3.969,0,1.609-.155,2.907-.467,3.892s-.856,1.673-1.635,2.062c-.778.389-1.466.622-2.062.7s-1.492.116-2.685.116ZM505.309,58.519c0,3.424-.792,5.902-2.374,7.433-1.583,1.531-3.334,2.296-5.253,2.296h-18.446c0,1.453.856,2.673,2.568,3.658,1.712.986,3.554,1.479,5.526,1.479,1.4,0,2.724-.104,3.969-.312,1.245-.206,2.152-.414,2.725-.622l.855-.312c1.246-.57,2.283-.856,3.113-.856,1.66,0,3.087,1.168,4.281,3.503.674,1.4,1.012,2.595,1.012,3.58,0,4.619-5.526,6.927-16.578,6.927-3.841,0-7.252-.661-10.234-1.984-2.984-1.323-5.307-3.062-6.966-5.215-1.662-2.152-2.894-4.423-3.697-6.811-.806-2.386-1.207-4.825-1.207-7.315,0-6.538,2.114-11.766,6.344-15.684,4.229-3.917,9.508-5.876,15.839-5.876,2.541,0,4.876.35,7.005,1.051,2.127.7,3.892,1.609,5.292,2.724,1.401,1.116,2.581,2.4,3.541,3.853.96,1.453,1.647,2.893,2.062,4.32.415,1.428.623,2.815.623,4.164ZM488.887,61.164c1.971,0,2.957-.829,2.957-2.49,0-1.193-.455-2.152-1.362-2.88-.908-.726-2.218-1.09-3.93-1.09-1.661,0-3.321.688-4.981,2.062-1.661,1.376-2.491,2.841-2.491,4.397h9.808Z"/>
  </g>
  <g id="Vector_Smart_Object_Image" data-name="Vector Smart Object Image">
    <g>
      <path class="cls-17" d="M96.831,47.179s-1.779,1.64-9.733,2.423c-7.957.783-63.99,3.309-63.99,3.309l-3.477-1.633s-7.938-.318-9.1-2.803,26.965-12.83,26.965-12.83l35.709-1.628,8.206,3.124,15.42,10.038Z"/>
      <path class="cls-4" d="M96.831,47.179s-1.779,1.64-9.733,2.423c-7.957.783-63.99,3.309-63.99,3.309l-3.477-1.633s-7.938-.318-9.1-2.803,26.965-12.83,26.965-12.83l35.709-1.628,8.206,3.124,15.42,10.038Z"/>
      <path class="cls-5" d="M20.121,63.036s-9.084,1.228-7.79,11.738c1.298,10.509,14.372,8.115,14.372,8.115l-1.354-15.095-5.228-4.758Z"/>
      <path class="cls-5" d="M89.938,61.988s6.941,1.036,7.578,8.709c.637,7.673-7.804,14.587-14.528,12.004-6.723-2.583-1.964-14.13-1.964-14.13l8.914-6.583Z"/>
      <path class="cls-26" d="M89.391,66.549s3.625,1.851,2.153,6.016c-2.059,5.835-6.457,4.291-6.457,4.291l1.218-7.228,3.087-3.08Z"/>
      <path class="cls-26" d="M18.869,67.608s-3.568,1.959-1.971,6.078c2.234,5.771,6.583,4.095,6.583,4.095l-1.435-7.188-3.177-2.986Z"/>
      <path class="cls-19" d="M85.846,63.186l.13,8.642s-.056,1.5-.57,3.826c-1.152,5.216-4.603,14.591-14.876,20.582-1.461.851-2.934,1.564-4.412,2.147-4.292,1.696-8.607,2.312-12.731,2.145-8.885-.361-16.863-4.363-21.725-9.021-7.893-7.564-8.542-19.265-8.542-19.265l-.246-16.363,9.034-11.235,47.261-.14,5.927,6.74.749,11.941Z"/>
      <path class="cls-22" d="M37.596,92.636c6.192,4.327,11.969,6.499,16.393,7.584-8.885-.361-16.863-4.363-21.724-9.021-7.893-7.564-8.542-19.265-8.542-19.265l-.044-2.894,2.52-2.034s-2.024,16.249,11.396,25.63Z"/>
      <path class="cls-22" d="M84.501,75.668c-1.152,5.216-4.602,14.59-14.875,20.582-1.462.851-2.935,1.564-4.412,2.147,5.211-4.188,13.679-11.892,16.198-19.462.857-2.561,1.936-3.442,3.09-3.267Z"/>
      <path class="cls-20" d="M96.831,47.179s-3.338-1.183-7.796-1.116c-4.459.067-70.793,1.063-70.793,1.063,0,0-6.027-.148-7.711,1.349l-.062-4.124c-.024-1.598,1.253-2.913,2.85-2.937l80.515-1.209c1.598-.024,2.913,1.253,2.937,2.85l.062,4.124h-.003Z"/>
      <path class="cls-23" d="M92.135,40.23c0,.033,0,.048,0,.048l-38.598.58v-.048s-38.602.58-38.602.58c0,0,0-.009,0-.024-.017-.316-.188-3.462-.074-4.905.119-1.521,1.351-1.585,1.351-1.585,0,0,1.85-18.951,23.283-25.533,0,0-.247-3.792,3.256-4.222,3.503-.432,10.23-1.007,10.23-1.007v.048s6.739.372,10.254.699c3.515.327,3.382,4.122,3.382,4.122,21.621,5.935,24.039,24.822,24.039,24.822,0,0,1.233.03,1.398,1.544.157,1.406.091,4.461.079,4.88Z"/>
      <path class="cls-25" d="M92.135,40.23l-3.28.049s-1.952-19.322-22.152-28.695l-.045-2.188s-15.801-4.69-27.182.794l.192,3.13s-17.727,5.196-21.748,27.928l-2.98.114c-.017-.316-.188-3.462-.074-4.905.119-1.522,1.351-1.585,1.351-1.585,0,0,1.85-18.951,23.283-25.532,0,0-.247-3.792,3.256-4.222,3.503-.433,10.231-1.007,10.231-1.007v.048s6.739.372,10.254.699c3.514.327,3.382,4.122,3.382,4.122,21.621,5.935,24.039,24.822,24.039,24.822,0,0,1.234.029,1.398,1.544.154,1.409.088,4.464.076,4.883Z"/>
      <path class="cls-4" d="M92.058,35.347c-.164-1.514-1.398-1.544-1.398-1.544,0,0-2.418-18.887-24.039-24.822,0,0,.133-3.795-3.382-4.122-3.515-.327-10.256-.699-10.256-.699v-.048s-6.728.574-10.231,1.007c-3.503.433-3.256,4.222-3.256,4.222-21.433,6.581-23.283,25.532-23.283,25.532,0,0-1.232.067-1.351,1.585-.119,1.518.074,4.932.074,4.932l38.598-.58v.048s38.599-.58,38.599-.58c0,0,.093-3.415-.074-4.932Z"/>
      <path class="cls-29" d="M66.621,8.981s.379,3.172-.805,9.688l.805-9.688Z"/>
      <path class="cls-4" d="M66.621,8.981s.379,3.172-.805,9.688"/>
      <path class="cls-4" d="M90.66,33.803l-9.776.147c-1.034.015-1.859.866-1.844,1.9l.069,4.624"/>
      <path class="cls-29" d="M39.499,9.34s-.284,3.182,1.095,9.659l-1.095-9.659Z"/>
      <path class="cls-4" d="M39.499,9.34s-.284,3.182,1.095,9.659"/>
      <path class="cls-4" d="M16.216,34.872l9.776-.147c1.034-.015,1.885.81,1.9,1.844l.069,4.624"/>
      <path class="cls-11" d="M92.735,43.053c-1.959-.712-4.099-.665-6.178-.613-15.206.391-30.411.779-45.617,1.17-6.757.174-13.512.348-20.269.521-2.999.078-6.36.316-8.347,2.559-.391.443-.772.986-1.356,1.082-.89.149-1.566-.878-1.598-1.779-.062-1.691,1.218-3.202,2.745-3.937,1.527-.731,3.268-.842,4.958-.925,25.038-1.229,50.197.826,75.166-1.397,1.442-.127,3.149-.162,4.031.989.486.635.577,1.481.652,2.279.073.804.775,3.797-.861,2.673-.53-.363-.904-1.168-1.453-1.595-.561-.435-1.203-.805-1.873-1.027Z"/>
      <path class="cls-4" d="M96.831,47.179s-3.338-1.183-7.796-1.116c-4.459.067-70.793,1.063-70.793,1.063,0,0-6.027-.148-7.711,1.349l-.062-4.124c-.024-1.598,1.253-2.913,2.85-2.937l80.515-1.209c1.598-.024,2.913,1.253,2.937,2.85l.062,4.124h-.003Z"/>
      <path class="cls-9" d="M25.439,57.297s-.032,8.742.169,11.253c.201,2.512-1.471,4.813-4.105,3.098-2.634-1.715-2.284-12.153-2.284-12.153,0,0,2.709.083,6.221-2.198Z"/>
      <path class="cls-24" d="M39.949,71.066c2.671-.04,4.803-2.237,4.763-4.908-.04-2.67-2.238-4.803-4.908-4.762-2.671.04-4.803,2.237-4.763,4.908.04,2.67,2.237,4.803,4.908,4.762Z"/>
      <path class="cls-24" d="M68.536,70.637c2.671-.04,4.803-2.237,4.763-4.908-.04-2.67-2.237-4.803-4.908-4.763-2.671.04-4.803,2.238-4.763,4.908.04,2.67,2.238,4.803,4.908,4.762Z"/>
      <path class="cls-24" d="M74.624,57.194c-.389.006-.78-.121-1.1-.39-.149-.122-3.44-2.774-8.191-1.958-.914.159-1.783-.456-1.938-1.37-.158-.915.456-1.783,1.37-1.939,6.343-1.09,10.736,2.538,10.919,2.695.709.599.8,1.658.201,2.367-.326.385-.79.588-1.26.595Z"/>
      <path class="cls-24" d="M33.603,57.81c.389-.006.776-.144,1.088-.423.146-.126,3.355-2.876,8.129-2.203.919.131,1.768-.509,1.896-1.428.131-.919-.509-1.768-1.428-1.896-6.372-.899-10.655,2.859-10.833,3.021-.691.62-.75,1.682-.13,2.372.337.375.807.564,1.278.557Z"/>
      <path class="cls-21" d="M69.347,80.092c-1.228,2.337-3.047,4.888-5.672,6.785-2.317,1.675-5.264,2.838-8.987,2.894-4.06.061-7.225-1.224-9.67-3.072-2.345-1.771-4.029-4.064-5.21-6.188-1.032-1.863-.464-4.012.986-5.225.697-.583,1.596-.95,2.618-.965l22.163-.333c1.022-.015,1.932.324,2.646.886,1.492,1.175,2.124,3.324,1.128,5.217Z"/>
      <path class="cls-28" d="M63.21,79.211c-4.757.072-19.046.286-19.046.286,0,0-3.805.202-3.368-4.21.697-.584,1.596-.95,2.618-.965l22.163-.333c1.022-.015,1.932.324,2.645.886.052.044-.258,4.264-5.012,4.336Z"/>
      <path class="cls-13" d="M63.678,86.877c-2.318,1.675-5.264,2.838-8.987,2.894-4.061.061-7.225-1.224-9.671-3.072,1.379-3.159,6.641-4.288,11.966-4.075,4.1.162,5.915,2.555,6.691,4.253Z"/>
      <path class="cls-7" d="M43.411,74.322l22.163-.333c3.162-.047,5.245,3.304,3.773,6.103-2.316,4.404-6.719,9.56-14.659,9.679-7.956.119-12.469-4.921-14.88-9.259-1.528-2.754.454-6.143,3.604-6.19Z"/>
      <g class="cls-1">
        <path class="cls-14" d="M24.944,47.025l60.646-.911,1.506,3.487-64.025.961,1.874-3.538Z"/>
        <path class="cls-14" d="M19.218,59.495s10.777,2.486,21.351-9.191l-9.541-1.301-11.81,10.492Z"/>
        <path class="cls-14" d="M45.489,58.289s16.062,2.418,26.145-10.21l-8.888.444-17.257,9.766Z"/>
      </g>
      <path class="cls-2" d="M84.917,65.555s-4.774,29.434-35.846,33.675c0,0,32.666,4.141,36.223-27.406l-.378-6.269Z"/>
      <path class="cls-10" d="M34.886,46.876s-6.851,14.048-15.25,12.465c-.762-.145-1.448-.31-2.059-.487-6.121-1.802-5.086-5.173-5.086-5.173,0,0,5.117,1.539,8.529-6.047.081-.179.159-.361.237-.549l13.628-.205v-.003Z"/>
      <path class="cls-16" d="M17.521,54.346c-1.819,1.686-2.562,1.652-2.562,1.652,0,0-.205,1.381,1.463,2.873-4.818-1.821-4.015-5.189-4.015-5.189,0,0,4.504,1,7.162-6.575.006.102-.249,5.573-2.048,7.24Z"/>
      <path class="cls-10" d="M99.015,53.692s-3.933,6.31-10.982,4.995c-4.037-.753-9.097-4.009-15.026-12.381l17.352-.225s.067.87.452,2.022c.776,2.301,2.83,5.732,8.204,5.588Z"/>
      <path class="cls-16" d="M99.015,53.692s-3.933,6.31-10.982,4.996c.799-.241,1.571-.581,2.31-.963,1.49-.773,2.881-1.726,4.362-2.517-1.659-.053-3.155-1.255-3.829-2.774-.474-1.072-.821-2.867-.313-3.987.067-.149.156-.262.254-.339.77,2.298,2.824,5.729,8.198,5.585Z"/>
      <path class="cls-4" d="M90.362,46.079s.594,7.828,8.654,7.613c0,0-9.725,15.608-26.005-7.389l17.352-.224Z"/>
      <path class="cls-3" d="M64.946,46.425s-3.548,10.109-19.457,11.865c0,0,2.675-4.973,2.576-11.611l16.881-.253Z"/>
      <path class="cls-4" d="M34.885,46.876s-6.671,14.046-14.853,12.459c-8.182-1.587-6.967-5.667-6.967-5.667,0,0,5.225,1.613,8.542-6.596l13.277-.199v.003Z"/>
      <path class="cls-7" d="M85.975,71.829s-.587,15.742-15.445,24.408c-14.858,8.666-30.975,2.835-38.868-4.729-7.893-7.564-8.542-19.265-8.542-19.265"/>
      <path class="cls-3" d="M89.891,58.868s-.021,8.054-.329,9.623c-.308,1.57-1.654,3.535-4.265,3.336-2.611-.199-2.568-3.564-2.649-5.936-.084-2.369-.144-9.613-.144-9.613,0,0,3.593,2.753,7.387,2.591Z"/>
      <path class="cls-16" d="M39.761,24.609c-2.848,1.504-3.949,1.388-3.949,1.388,0,0-.424,1.372,1.925,3.061-7-2.367-5.516-5.68-5.516-5.68,0,0,6.604,1.503,11.208-5.857,0,.104-.851,5.601-3.667,7.088Z"/>
    </g>
    <g>
      <path class="cls-27" d="M117.392,36.54l5.821,1.199c.832.171,1.37.984,1.198,1.816l-2.21,10.73c-.171.832-.987,1.369-1.819,1.198l-5.821-1.199c-.829-.171-1.366-.986-1.195-1.818l2.21-10.73c.171-.832.987-1.369,1.815-1.196Z"/>
      <path class="cls-15" d="M113.265,48.445l2.21-10.73c.182-.886,1.053-1.462,1.942-1.279l5.821,1.199c.889.183,1.465,1.053,1.282,1.942l-2.21,10.73c-.183.889-1.057,1.464-1.945,1.281l-5.821-1.199c-.889-.183-1.464-1.057-1.278-1.945ZM117.374,36.646c-.772-.159-1.53.34-1.689,1.112l-2.21,10.73c-.16.775.339,1.533,1.112,1.692l5.821,1.199c.775.16,1.533-.34,1.693-1.115l2.21-10.73c.159-.772-.34-1.53-1.115-1.69l-5.821-1.199Z"/>
      <g class="cls-30">
        <path class="cls-14" d="M115.053,47.899l5.821,1.199c.832.171,1.648-.366,1.819-1.198l-.491,2.382c-.171.832-.987,1.369-1.819,1.198l-5.821-1.199c-.829-.171-1.366-.986-1.195-1.819l.491-2.382c-.172.835.366,1.648,1.195,1.819Z"/>
      </g>
      <g class="cls-32">
        <path class="cls-28" d="M117.392,36.541l5.821,1.199c.832.171,1.37.984,1.198,1.816l-.346,1.682c.171-.829-.366-1.645-1.198-1.816l-5.821-1.199c-.829-.171-1.644.363-1.815,1.195l.346-1.682c.171-.832.987-1.369,1.815-1.195Z"/>
      </g>
      <path class="cls-27" d="M109.713,38.319l5.51,1.135-1.571,7.626-6.495-1.338,2.555-7.423Z"/>
      <path class="cls-15" d="M109.642,38.195l5.711,1.176-1.614,7.835-6.722-1.384,2.625-7.627ZM115.096,39.537l-5.315-1.095-2.485,7.219,6.273,1.292,1.527-7.417Z"/>
      <path class="cls-27" d="M91.175,29.347l17.805,3.667c1.269.261,2.018,1.579,1.597,2.803l-.862,2.502-2.555,7.423-1.185,3.437c-.351,1.023-1.404,1.623-2.464,1.405l-10.861-2.237c-.976-.201-1.674-1.05-1.713-2.047-.225-5.983-6.624-9.651-12.091-6.615-.976.542-2.146-.258-2.012-1.366.729-5.977,7.113-10.463,14.341-8.974Z"/>
      <path class="cls-15" d="M90.834,46.306c-.103-2.77-1.594-5.23-3.984-6.577-2.441-1.373-5.412-1.355-7.948.054-.493.273-1.062.249-1.528-.065-.463-.311-.711-.851-.643-1.408.341-2.791,1.877-5.295,4.326-7.055,2.82-2.027,6.515-2.761,10.14-2.014l17.805,3.667c.635.13,1.182.53,1.503,1.093.32.565.384,1.24.174,1.852l-4.602,13.363c-.37,1.069-1.48,1.704-2.588,1.476l-10.862-2.237c-1.017-.21-1.759-1.092-1.794-2.148ZM91.147,29.451c-3.565-.734-7.198-.013-9.97,1.978-2.402,1.724-3.905,4.178-4.239,6.905-.059.484.147.935.551,1.205.398.266.884.285,1.303.053,2.603-1.445,5.652-1.463,8.157-.052,2.457,1.382,3.987,3.909,4.093,6.755.037.956.706,1.755,1.627,1.945l10.862,2.237c1.003.207,2.007-.367,2.34-1.334l4.602-13.363c.189-.554.134-1.164-.158-1.674-.291-.509-.788-.87-1.363-.989l-17.805-3.667Z"/>
      <g class="cls-30">
        <path class="cls-14" d="M79.956,32.3c-.7,1.157-1.162,2.447-1.328,3.813-.134,1.108,1.036,1.907,2.012,1.366,5.467-3.036,11.866.631,12.091,6.615.038.997.737,1.846,1.713,2.047l10.861,2.237c.326.067.65.056.956-.022l-.285.824c-.351,1.023-1.404,1.623-2.464,1.405l-10.861-2.237c-.976-.201-1.674-1.05-1.713-2.047-.225-5.983-6.624-9.651-12.091-6.615-.976.541-2.146-.258-2.012-1.366.281-2.32,1.417-4.413,3.121-6.021Z"/>
      </g>
      <g class="cls-32">
        <path class="cls-28" d="M91.172,29.347l17.805,3.667c1.269.262,2.018,1.579,1.597,2.803l-.862,2.503-2.555,7.423-1.185,3.437c-.295.857-1.081,1.418-1.949,1.449.055-.101.102-.207.141-.32l1.185-3.437,2.555-7.423.862-2.502c.42-1.224-.328-2.542-1.597-2.803l-17.805-3.667c-3.116-.642-6.073-.171-8.489,1.047,2.659-2.02,6.35-2.988,10.298-2.175Z"/>
      </g>
      <g class="cls-32">
        <path class="cls-28" d="M114.746,41.767l8.485,1.747.484-2.349-8.485-1.747-.484,2.349Z"/>
      </g>
      <path class="cls-8" d="M87.588,73.897l9.993,2.058,5.253-25.509-9.993-2.058-5.253,25.509Z"/>
      <g class="cls-30">
        <path class="cls-18" d="M101.939,54.948c.024.036.014.084-.022.108-.24.166-.485.262-.727.362-.242.1-.487.196-.722.31-.474.227-.903.538-1.286.896-.766.719-1.335,1.678-2.21,2.415-.432.37-.957.648-1.505.807-.55.158-1.115.22-1.674.22-.559,0-1.107-.047-1.653-.109-.274-.032-.545-.066-.816-.084-.271-.034-.53-.062-.789-.244l-.002-.004c-.011-.008-.021-.02-.028-.034-.02-.042,0-.09.041-.107.284-.123.564-.105.834-.068.268.049.538.083.807.113.537.061,1.073.106,1.604.106.53,0,1.057-.057,1.555-.201.495-.147.954-.39,1.351-.726.802-.668,1.37-1.621,2.191-2.397.411-.39.882-.708,1.377-.977.249-.136.508-.254.777-.336.27-.082.552-.133.844-.082.018.004.038.014.053.033Z"/>
        <path class="cls-18" d="M90.93,57.444c0-.041.031-.075.072-.076h.01c.32-.01.595.081.877.133.14.032.283.052.423.084.141.013.28.048.425.059.571.061,1.154.019,1.705-.129.279-.067.542-.179.798-.298.246-.136.494-.279.699-.471.433-.36.721-.85.947-1.387.229-.536.408-1.117.703-1.671.292-.554.753-1.052,1.306-1.36.547-.324,1.178-.494,1.81-.517.315-.016.633.03.948.08.311.064.621.197.829.461l-.005-.004c.015.016.03.037.042.055.007.011.014.025.014.04.003.044-.029.081-.073.082h-.016c-.019-.001-.038.001-.053.001l-.005-.004c-.317-.022-.562-.119-.834-.191-.269-.071-.552-.107-.832-.093-.559.019-1.121.172-1.605.459-.126.065-.234.151-.35.23-.104.094-.217.177-.308.283-.194.2-.353.427-.489.679-.272.502-.448,1.071-.686,1.634-.234.56-.568,1.137-1.061,1.544-.235.217-.512.378-.786.531-.287.134-.577.258-.882.33-.606.168-1.235.195-1.855.158-.617-.034-1.254-.18-1.741-.59-.016-.013-.028-.034-.023-.055Z"/>
        <path class="cls-18" d="M91.531,54.539c-.003-.044.032-.081.077-.084h.003c.221-.01.396.032.575.072.176.039.353.073.534.104.364.05.737.014,1.097-.068.721-.17,1.398-.548,1.927-1.072.529-.524.914-1.194,1.148-1.91.118-.359.197-.73.247-1.106.023-.186.047-.377.039-.566-.004-.191-.006-.379.093-.574v-.013c.02-.024.032-.05.056-.076l.004-.006s.004-.002.007-.005c.038-.033.097-.03.132.009.029.028.041.059.062.091v-.013c.112.195.113.401.094.603-.026.203-.033.405-.062.605-.051.401-.136.799-.263,1.185-.253.771-.671,1.5-1.255,2.081-.584.578-1.326,1-2.132,1.186-.403.095-.824.12-1.239.091-.104-.012-.208-.018-.311-.036-.102-.021-.205-.048-.304-.084-.197-.075-.384-.179-.513-.371-.01-.014-.013-.028-.016-.044Z"/>
        <path class="cls-18" d="M95.368,48.921c.028-.044.084-.058.128-.03.147.09.215.213.261.341.048.129.073.265.089.402.034.272.067.553.046.836-.039.569-.262,1.137-.699,1.547-.216.202-.496.35-.79.411-.293.061-.596.046-.875-.024-.282-.068-.543-.181-.785-.324-.061-.034-.119-.074-.172-.116-.057-.04-.116-.074-.174-.111-.111-.079-.221-.17-.227-.368-.002-.05.033-.097.085-.107l.007-.002c.201-.04.303.028.402.108.092.085.192.174.296.229.208.124.432.223.664.277.232.057.466.068.685.023.219-.049.422-.154.588-.31.336-.311.532-.783.562-1.257.012-.241,0-.487-.056-.729-.031-.122-.066-.241-.084-.366-.021-.123-.029-.253.035-.411,0-.003.005-.008.016-.019Z"/>
        <path class="cls-18" d="M101.187,58.643c.014.04-.008.083-.048.096-.316.11-.591.19-.87.314-.277.117-.547.262-.806.43-.52.342-.961.803-1.417,1.262-.456.458-.928.932-1.497,1.302-.573.375-1.228.583-1.857.744-.63.167-1.255.306-1.818.558-.562.259-1.076.621-1.517,1.067-.446.438-.834.945-1.198,1.469-.182.262-.359.531-.519.81-.171.271-.349.543-.654.733-.014.01-.034.015-.052.011-.043-.005-.075-.047-.069-.089.045-.353.211-.63.389-.903.185-.264.363-.537.55-.807.373-.538.775-1.066,1.252-1.533.472-.473,1.028-.871,1.645-1.153.619-.278,1.266-.419,1.886-.582.623-.162,1.218-.354,1.734-.691.522-.336.972-.782,1.426-1.241.451-.462.922-.93,1.468-1.326.274-.196.57-.375.901-.482.326-.114.697-.156,1.029-.041.02.007.041.027.045.053Z"/>
        <path class="cls-18" d="M92.949,61.439v.003c-.036.127-.093.174-.156.208-.064.037-.133.054-.201.068-.138.034-.265.092-.398.143-.259.106-.517.221-.77.347-.251.126-.5.262-.742.406-.121.072-.24.147-.358.223-.058.038-.118.075-.167.128-.056.044-.116.079-.264-.008h-.003c-.039-.024-.071-.065-.079-.117-.028-.165.028-.212.089-.253.072-.029.13-.07.191-.111.122-.078.248-.158.372-.232.253-.151.509-.291.773-.421.261-.13.529-.25.801-.359.134-.057.273-.1.408-.162.065-.03.135-.062.208-.072s.154-.006.256.078c.037.032.057.087.038.132Z"/>
        <path class="cls-18" d="M100.599,61.411c.028.031.028.077-.003.106-.263.261-.476.51-.681.793-.201.28-.386.585-.569.9-.363.624-.718,1.334-1.37,1.817-.321.243-.722.385-1.113.436-.395.053-.778.021-1.15-.022-.737-.089-1.455-.237-2.107-.069-.32.084-.621.243-.876.465-.258.222-.473.495-.666.793-.381.595-.667,1.27-1,1.934-.335.671-.756,1.305-1.247,1.871-.245.283-.51.553-.779.816-.276.252-.58.485-.973.573-.017.006-.041,0-.058-.009-.036-.023-.048-.072-.024-.108.209-.334.48-.559.747-.798.278-.23.528-.487.761-.757.47-.54.868-1.138,1.188-1.783.326-.644.614-1.331,1.024-1.973.206-.32.447-.625.747-.885.299-.257.661-.454,1.05-.554.389-.101.786-.104,1.164-.076.377.031.743.091,1.102.134.36.04.71.065,1.047.022.336-.043.649-.153.915-.354.268-.198.495-.463.695-.753.2-.289.368-.607.542-.933.17-.327.352-.664.604-.961.245-.296.573-.571.966-.647.023-.005.049.004.064.022Z"/>
        <path class="cls-18" d="M99.363,67.474c.017.038.001.085-.037.102-.273.128-.568.136-.847.113-.279-.023-.553-.086-.817-.153-.531-.134-1.046-.24-1.563-.256-.511-.018-1.024.079-1.4.376-.384.289-.6.763-.744,1.263-.144.504-.241,1.049-.39,1.577-.144.532-.312,1.059-.529,1.57-.215.511-.476,1.006-.801,1.467-.162.229-.342.448-.523.663-.192.207-.413.399-.725.447-.013,0-.028,0-.042-.006-.04-.018-.062-.062-.044-.106v-.003c.116-.285.297-.457.477-.648.189-.176.356-.382.506-.595.303-.424.552-.894.756-1.382.207-.488.368-.997.509-1.514.144-.517.239-1.04.391-1.582.078-.271.177-.541.317-.799.143-.255.334-.499.577-.683.241-.184.526-.313.812-.382.289-.071.58-.09.865-.081.568.014,1.12.149,1.645.255l.782.142c.261.051.508.092.779.189.02.007.036.02.047.028Z"/>
        <path class="cls-18" d="M91.508,70.723c.05.135.027.23-.009.316-.034.087-.09.162-.146.238-.112.152-.205.313-.311.466-.208.31-.429.611-.66.903-.232.292-.474.576-.727.848-.125.137-.256.272-.386.404-.067.067-.133.132-.189.208-.063.065-.138.124-.309.077-.047-.016-.086-.052-.097-.104-.039-.176.022-.242.09-.303.076-.05.139-.115.202-.18.129-.126.253-.257.377-.39.245-.268.482-.54.706-.825.227-.284.44-.577.642-.876.097-.152.205-.298.288-.458.039-.082.078-.165.139-.234.056-.073.125-.137.267-.16.052-.011.105.019.123.069Z"/>
        <path class="cls-18" d="M98.867,69.927c.006.048-.027.088-.072.094-.212.028-.388-.008-.561-.05-.173-.039-.34-.089-.51-.127-.341-.07-.689-.061-1.013.025-.654.174-1.185.695-1.523,1.306-.347.612-.516,1.323-.531,2.034-.008.357.022.713.086,1.066.032.178.071.351.136.521.048.175.105.34.021.566v.006c-.002.006-.003.009-.007.014-.027.041-.08.055-.125.03-.205-.123-.283-.308-.329-.492l-.117-.567c-.069-.379-.102-.763-.094-1.152.016-.773.198-1.553.586-2.238.189-.342.432-.66.73-.926.298-.263.657-.477,1.053-.582.394-.109.807-.102,1.198-.047.195.025.389.065.57.139.182.072.353.166.482.343.007.011.014.025.021.036Z"/>
        <path class="cls-18" d="M98.318,72.319l-.007.002c-.139.055-.229.053-.318.044-.089-.006-.172-.026-.261-.035-.177-.018-.35.034-.5.112-.305.165-.527.5-.577.849-.057.35.095.69.341.997.121.153.263.298.411.444.075.075.148.143.236.204.076.069.148.146.119.331v.003c-.007.048-.044.091-.096.102-.18.041-.262-.029-.337-.104-.067-.085-.145-.158-.22-.233-.15-.149-.302-.306-.444-.481-.139-.175-.266-.373-.351-.6-.088-.224-.112-.485-.079-.724.074-.481.359-.925.795-1.165.215-.121.468-.169.711-.178.123-.006.246,0,.362.047.114.039.223.115.274.262.018.05-.009.104-.057.125Z"/>
      </g>
      <g class="cls-32">
        <path class="cls-28" d="M96.094,75.649l4.403-21.379c.07-.338.402-.557.74-.487l.874.18-4.529,21.992-1.485-.306h-.003Z"/>
      </g>
      <g class="cls-31">
        <path class="cls-18" d="M102.835,50.446l-.73,3.547-5.262-1.083c-1.305-.269-2.583.572-2.851,1.877l-4.036,19.598-2.367-.488,5.253-25.509,9.993,2.058Z"/>
      </g>
      <g class="cls-30">
        <path class="cls-14" d="M115.223,39.454l-1.571,7.626-2.804-.577,2.974-7.337,1.401.288Z"/>
      </g>
      <g class="cls-30">
        <path class="cls-28" d="M102.779,35.191c1.694.349,2.886,1.515,2.662,2.604-.224,1.089-1.538.513-3.232.164-1.694-.349-3.128-.339-2.904-1.428.224-1.09,1.78-1.69,3.474-1.341Z"/>
      </g>
      <g class="cls-30">
        <path class="cls-28" d="M93.546,84.372c1.06.218.735,1.87.316,3.902-.419,2.032-.776,3.678-1.833,3.46-1.056-.218-1.576-2.044-1.157-4.076.418-2.032,1.614-3.505,2.674-3.287Z"/>
      </g>
      <path class="cls-4" d="M117.392,36.54l5.821,1.199c.832.171,1.37.984,1.198,1.816l-2.21,10.73c-.171.832-.987,1.369-1.819,1.198l-5.821-1.199c-.829-.171-1.366-.986-1.195-1.818l2.21-10.73c.171-.832.987-1.369,1.815-1.196Z"/>
      <path class="cls-4" d="M109.713,38.319l5.51,1.135-1.571,7.626-6.495-1.338,2.555-7.423Z"/>
      <path class="cls-4" d="M91.175,29.347l17.805,3.667c1.269.261,2.018,1.579,1.597,2.803l-.862,2.502-2.555,7.423-1.185,3.437c-.351,1.023-1.404,1.623-2.464,1.405l-10.861-2.237c-.976-.201-1.674-1.05-1.713-2.047-.225-5.983-6.624-9.651-12.091-6.615-.976.542-2.146-.258-2.012-1.366.729-5.977,7.113-10.463,14.341-8.974Z"/>
      <path class="cls-4" d="M87.588,73.897l9.993,2.058,5.253-25.509-9.993-2.058-5.253,25.509Z"/>
      <path class="cls-19" d="M83.041,80.386c-2.516-1.432-1.068-4.342-1.068-4.342,1.304-3.787,5.986-2.692,5.986-2.692l9.257,1.906c3.657.753,6.013,4.327,5.26,7.985l-2.25,10.924c-.506,2.457-2.292,4.329-4.518,5.06-1.084.357-2.272.443-3.469.197l-8.569-1.765c-4.268-.879-4.403-3.721-4.403-3.721-.906-4.177,2.475-6.61,2.475-6.61-4.211-4.324,1.299-6.946,1.299-6.943Z"/>
      <path class="cls-22" d="M87.96,73.349l9.257,1.907c3.657.753,6.013,4.327,5.26,7.984l-2.25,10.924c-.506,2.457-2.292,4.329-4.518,5.06.817-4.041,2.707-13.357,3.445-16.7.955-4.318-3.957-4.936-3.957-4.936,0,0-1.254-.258-6.213-1.28-4.959-1.021-7.011-.268-7.011-.268,1.305-3.79,5.986-2.692,5.986-2.692Z"/>
      <path class="cls-4" d="M83.039,80.382c-2.519-1.433-1.069-4.342-1.069-4.342,1.304-3.787,5.986-2.692,5.986-2.692l9.26,1.907c3.657.753,6.013,4.33,5.259,7.987l-2.249,10.921c-.753,3.657-4.33,6.013-7.988,5.259l-8.569-1.765c-4.268-.879-4.403-3.721-4.403-3.721-.906-4.177,2.475-6.61,2.475-6.61-4.211-4.324,1.299-6.946,1.296-6.946Z"/>
      <path class="cls-4" d="M83.045,80.368l10.736,2.211"/>
      <path class="cls-4" d="M82.028,87.443l10.736,2.211"/>
    </g>
    <g>
      <path class="cls-19" d="M18.917,72.469l-1.464-6.072c-.661-2.741-3.417-4.424-6.155-3.764s-4.424,3.417-3.764,6.155l1.448,6.009,9.935-2.328Z"/>
      <path class="cls-6" d="M19.2,73.082l-1.539-6.384c-.695-2.882-3.592-4.651-6.471-3.957s-4.651,3.592-3.957,6.471l1.523,6.317,10.444-2.447Z"/>
      <g>
        <g class="cls-30">
          <path class="cls-28" d="M16.588,87.661c.489,2.017.034,3.86-1.014,4.114-1.048.254-1.463-1.378-1.952-3.394-.489-2.016-.871-3.656.18-3.911,1.051-.255,2.298,1.175,2.787,3.191Z"/>
        </g>
        <path class="cls-19" d="M25.7,87.014s3.463,2.314,2.704,6.52c0,0-.036,2.845-4.271,3.872l-8.502,2.062c-1.188.288-2.378.244-3.474-.076-2.249-.652-4.1-2.461-4.691-4.899l-2.629-10.839c-.88-3.629,1.35-7.283,4.978-8.163l9.185-2.228s4.641-1.258,6.076,2.482c0,0,1.549,2.857-.916,4.376,0-.003,5.597,2.425,1.54,6.893Z"/>
        <path class="cls-22" d="M25.076,75.741s-2.077-.682-6.998.512c-4.921,1.193-6.165,1.495-6.165,1.495,0,0-4.887.789-3.782,5.071.854,3.315,3.069,12.56,4.025,16.569-2.249-.653-4.1-2.461-4.691-4.899l-2.629-10.839c-.88-3.629,1.35-7.282,4.978-8.163l9.185-2.228s4.64-1.261,6.076,2.482Z"/>
        <path class="cls-4" d="M25.7,87.014s3.463,2.314,2.704,6.519c0,0-.036,2.845-4.271,3.872l-8.502,2.062c-3.629.88-7.286-1.349-8.166-4.978l-2.628-10.836c-.88-3.629,1.349-7.286,4.978-8.166l9.188-2.229s4.641-1.258,6.076,2.482c0,0,1.551,2.856-.917,4.376-.003,0,5.595,2.429,1.538,6.897Z"/>
        <path class="cls-4" d="M13.504,82.687l10.652-2.584"/>
        <path class="cls-4" d="M14.767,89.722l10.652-2.584"/>
      </g>
    </g>
  </g>
  <path class="cls-24" d="M505.184,28.967h6.534v1.512h-2.295v7.992h-1.944l.027-7.992h-2.322v-1.512ZM524.084,28.967v9.504h-1.81l-.026-6.885-2.943,6.885h-1.377l-2.916-6.993v6.993h-1.782v-9.504h2.512l2.942,7.209,3.024-7.209h2.376Z"/>
</svg>